<svg width="4em" height="1em" viewBox="0 0 370 82.667">
    <path xmlns="http://www.w3.org/2000/svg" fill="currentColor"
        d="M16 1.5c-1.11 0-2 .89-2 2 0 1.11.89 2 2 2 1.11 0 2-.89 2-2 0-1.11-.89-2-2-2zm-.5 4.95v8.05h1V6.45c-.163.027-.33.052-.5.052-.17 0-.337-.025-.5-.053zM9 6.501c-1.11 0-2 .89-2 2 0 1.11.89 2 2 2 1.11 0 2-.89 2-2 0-1.11-.89-2-2-2zm14 0c-1.11 0-2 .89-2 2 0 1.11.89 2 2 2 1.11 0 2-.89 2-2 0-1.11-.89-2-2-2zm-.5 4.947v2.061H20v.992h1v-.012h2.5v-3.04c-.163.027-.33.052-.5.052-.17 0-.337-.025-.5-.053zm-14 .004v3.041H11v.01h1v-.992H9.5v-2.059c-.163.028-.33.05-.5.05-.17 0-.337-.022-.5-.05zm-5.5.049c-1.11 0-2 .89-2 2 0 1.11.89 2 2 2 1.11 0 2-.89 2-2 0-1.11-.89-2-2-2zm26 0c-1.11 0-2 .89-2 2 0 1.11.89 2 2 2 1.11 0 2-.89 2-2 0-1.11-.89-2-2-2zM7.562 15.377a.563.563 0 0 0-.562.562v7.5h18v-7.5a.563.563 0 0 0-.563-.562H7.563zM2.5 16.449v5.053H6v-1H3.5v-4.053c-.163.028-.33.053-.5.053-.17 0-.337-.025-.5-.053zm26 0V20.5H26v1h3.5v-5.05c-.163.027-.33.05-.5.05-.17 0-.337-.023-.5-.05zM7 24.562V26.5h18v-1.938H7zm7.586 2.938c0 .933 0 1.48-.34 2h-2.732a.5.5 0 1 0 0 1H20.48a.5.5 0 1 0 0-1h-2.732c-.34-.52-.342-1.067-.342-2h-2.82z"
        style="clip-rule:nonzero;display:inline;overflow:visible;visibility:visible;opacity:1;isolation:auto;mix-blend-mode:normal;color-interpolation:sRGB;color-interpolation-filters:linearRGB;solid-opacity:1;fill:currentColor;fill-opacity:1;fill-rule:nonzero;stroke:none;stroke-width:1;stroke-linecap:round;stroke-linejoin:round;stroke-miterlimit:4;stroke-dasharray:none;stroke-dashoffset:1.5;stroke-opacity:1;color-rendering:auto;image-rendering:auto;shape-rendering:auto;text-rendering:auto;enable-background:accumulate"
        transform="matrix(2.33333 0 0 2.33333 3.667 11.5)" />
    <path fill="currentColor"
        d="M103.695 45.536c3.951 0 6.79 1.688 8.516 5.064.883-1.611 2.09-2.858 3.625-3.74s3.203-1.324 5.007-1.324c6.866 0 10.319 3.952 10.357 11.854v16.112h-5.179V58.023c0-2.685-.48-4.632-1.438-5.84s-2.436-1.813-4.43-1.813c-2.341 0-4.086.71-5.237 2.129s-1.727 3.376-1.727 5.87v15.133h-5.178V58.829c0-3.223-.46-5.438-1.381-6.647s-2.379-1.812-4.374-1.812c-2.148 0-3.864.825-5.15 2.474s-1.927 3.74-1.927 6.272v14.386H90V46.227h4.834v4.258h.115c.575-1.343 1.716-2.503 3.423-3.481s3.482-1.468 5.323-1.468zm46.264 0c3.452 0 6.186.787 8.2 2.36s3.078 3.759 3.193 6.56V69.07c0 1.38.077 2.858.23 4.43h-4.603a44.751 44.751 0 0 1-.173-4.142h-.115c-1.189 1.764-2.56 3.011-4.114 3.74s-3.366 1.093-5.438 1.093c-2.8 0-5.073-.748-6.818-2.244s-2.619-3.472-2.619-5.927c0-3.107 1.305-5.457 3.913-7.049s6.291-2.388 11.048-2.388h3.856v-.978c0-1.841-.604-3.29-1.813-4.344s-2.79-1.583-4.747-1.583c-1.458 0-2.733.22-3.827.662s-2.388 1.256-3.884 2.446l-3.107-3.223c2.954-2.608 6.56-3.95 10.818-4.028zM142.88 65.62c0 2.954 1.957 4.43 5.87 4.43 2.34 0 4.21-.7 5.61-2.1s2.12-3.424 2.158-6.07v-1.497h-2.935c-3.376 0-6.003.432-7.883 1.295s-2.82 2.177-2.82 3.942zm29.001-32.972c1.036 0 1.928.374 2.676 1.122s1.122 1.64 1.122 2.676c0 1.074-.383 1.975-1.15 2.704s-1.65 1.094-2.647 1.094c-1.075 0-1.976-.365-2.705-1.094s-1.093-1.63-1.093-2.704.383-1.976 1.15-2.705 1.65-1.093 2.647-1.093zm2.59 13.58v27.275h-5.179V46.227h5.179zM188.282 30v43.502h-5.179V30h5.179zm21.924 15.536c3.95 0 6.79 1.688 8.516 5.064.882-1.611 2.09-2.858 3.625-3.74s3.203-1.324 5.006-1.324c6.867 0 10.32 3.952 10.358 11.854v16.112h-5.18V58.023c0-2.685-.479-4.632-1.438-5.84s-2.436-1.813-4.43-1.813c-2.34 0-4.086.71-5.237 2.129s-1.726 3.376-1.726 5.87v15.133h-5.179V58.829c0-3.223-.46-5.438-1.38-6.647s-2.38-1.812-4.374-1.812c-2.148 0-3.865.825-5.15 2.474s-1.928 3.74-1.928 6.272v14.386h-5.179V46.227h4.834v4.258h.115c.576-1.343 1.717-2.503 3.424-3.481s3.481-1.468 5.323-1.468zm46.263 0c3.453 0 6.186.787 8.2 2.36s3.079 3.759 3.194 6.56V69.07c0 1.38.076 2.858.23 4.43h-4.603a44.751 44.751 0 0 1-.173-4.142h-.115c-1.19 1.764-2.56 3.011-4.114 3.74s-3.367 1.093-5.438 1.093c-2.8 0-5.073-.748-6.819-2.244s-2.618-3.472-2.618-5.927c0-3.107 1.304-5.457 3.913-7.049s6.29-2.388 11.048-2.388h3.855v-.978c0-1.841-.604-3.29-1.812-4.344s-2.791-1.583-4.748-1.583c-1.457 0-2.733.22-3.826.662s-2.388 1.256-3.884 2.446l-3.108-3.223c2.954-2.608 6.56-3.95 10.818-4.028zm-7.077 20.083c0 2.954 1.956 4.43 5.869 4.43 2.34 0 4.21-.7 5.61-2.1s2.12-3.424 2.158-6.07v-1.497h-2.934c-3.376 0-6.004.432-7.884 1.295s-2.82 2.177-2.82 3.942zm35.215-20.083c2.072 0 3.923.384 5.553 1.151s2.887 1.88 3.77 3.338l-4.029 3.05c-1.534-1.803-3.395-2.705-5.581-2.705-1.305 0-2.388.288-3.251.863s-1.295 1.304-1.295 2.187c0 1.918 1.784 3.222 5.351 3.913 3.491.652 5.956 1.61 7.395 2.877s2.157 3.069 2.157 5.409c0 2.647-1.007 4.728-3.02 6.243s-4.71 2.292-8.085 2.33c-2.532 0-4.613-.393-6.244-1.18s-3.04-2.004-4.229-3.653l3.913-3.222c2.071 2.148 4.277 3.222 6.617 3.222 1.535 0 2.839-.307 3.913-.92s1.611-1.459 1.611-2.533c0-1.88-1.726-3.184-5.178-3.913-3.837-.767-6.416-1.793-7.74-3.078s-1.985-2.944-1.985-4.977c0-2.532.978-4.556 2.935-6.071s4.43-2.292 7.422-2.33zm23.535-6.962v7.653h7.423v4.488h-7.423v13.12c0 1.764.25 3.126.748 4.085s1.554 1.439 3.165 1.439c1.534 0 2.762-.269 3.683-.806v4.719c-.998.537-2.57.844-4.719.92-2.071 0-3.673-.316-4.805-.95s-1.956-1.514-2.474-2.646-.777-2.906-.777-5.323V50.715h-5.984v-4.488h5.984v-7.653h5.18zm26.585 6.962c4.181 0 7.432 1.314 9.753 3.942s3.5 6.243 3.539 10.847v1.438h-21.866c0 2.225.892 4.095 2.676 5.61s3.96 2.293 6.53 2.331c2.84 0 5.333-1.362 7.481-4.085l3.913 2.992c-2.915 3.72-6.944 5.581-12.084 5.581-4.181 0-7.548-1.333-10.099-3.999s-3.864-6.11-3.941-10.329c0-4.066 1.314-7.451 3.941-10.156s6.014-4.095 10.157-4.172zm7.768 12.084c-.077-2.57-.806-4.536-2.187-5.898s-3.28-2.043-5.696-2.043c-1.612 0-3.06.394-4.345 1.18s-2.292 1.803-3.02 3.05-1.094 2.484-1.094 3.711h16.342zm25.203-12.084c.96 0 1.727.115 2.302.346l-.23 5.581c-.998-.268-1.86-.403-2.59-.403-5.102 0-7.691 2.84-7.768 8.517v13.925h-5.179V46.227h5.18v4.2h.114c.69-1.457 1.803-2.637 3.338-3.538s3.145-1.353 4.833-1.353z" />
</svg>